<?xml version="1.0" encoding="iso-8859-1"?>
<!-- Generator: Adobe Illustrator 19.0.0, SVG Export Plug-In . SVG Version: 6.00 Build 0)  -->
<svg version="1.1" id="Layer_1" xmlns="http://www.w3.org/2000/svg" xmlns:xlink="http://www.w3.org/1999/xlink" x="0px" y="0px"
	 viewBox="0 0 511.999 511.999" style="enable-background:new 0 0 511.999 511.999;" xml:space="preserve">
<g>
	<g>
		<path d="M142.715,82.068h-36.571c-5.77,0-10.449,4.679-10.449,10.449v57.469c0,5.77,4.679,10.449,10.449,10.449h36.571
			c5.77,0,10.449-4.679,10.449-10.449V92.517C153.164,86.747,148.485,82.068,142.715,82.068z M132.266,139.537h-15.674v-36.571
			h15.674V139.537z"/>
	</g>
</g>
<g>
	<g>
		<path d="M215.858,82.068h-36.571c-5.77,0-10.449,4.679-10.449,10.449v57.469c0,5.77,4.679,10.449,10.449,10.449h36.571
			c5.77,0,10.449-4.679,10.449-10.449V92.517C226.307,86.747,221.628,82.068,215.858,82.068z M205.409,139.537h-15.673v-36.571
			h15.673V139.537z"/>
	</g>
</g>
<g>
	<g>
		<path d="M142.715,184.467h-36.571c-5.77,0-10.449,4.679-10.449,10.449v57.469c0,5.77,4.679,10.449,10.449,10.449h36.571
			c5.77,0,10.449-4.679,10.449-10.449v-57.469C153.164,189.147,148.485,184.467,142.715,184.467z M132.266,241.937h-15.674v-36.571
			h15.674V241.937z"/>
	</g>
</g>
<g>
	<g>
		<path d="M215.858,184.467h-36.571c-5.77,0-10.449,4.679-10.449,10.449v57.469c0,5.77,4.679,10.449,10.449,10.449h36.571
			c5.77,0,10.449-4.679,10.449-10.449v-57.469C226.307,189.147,221.628,184.467,215.858,184.467z M205.409,241.937h-15.673v-36.571
			h15.673V241.937z"/>
	</g>
</g>
<g>
	<g>
		<path d="M142.715,286.867h-36.571c-5.77,0-10.449,4.679-10.449,10.449v57.469c0,5.77,4.679,10.449,10.449,10.449h36.571
			c5.77,0,10.449-4.679,10.449-10.449v-57.469C153.164,291.547,148.485,286.867,142.715,286.867z M132.266,344.337h-15.674v-36.571
			h15.674V344.337z"/>
	</g>
</g>
<g>
	<g>
		<path d="M215.858,286.867h-36.571c-5.77,0-10.449,4.679-10.449,10.449v57.469c0,5.77,4.679,10.449,10.449,10.449h36.571
			c5.77,0,10.449-4.679,10.449-10.449v-57.469C226.307,291.547,221.628,286.867,215.858,286.867z M205.409,344.337h-15.673v-36.571
			h15.673V344.337z"/>
	</g>
</g>
<g>
	<g>
		<path d="M142.715,389.267h-36.571c-5.77,0-10.449,4.679-10.449,10.449v57.469c0,5.77,4.679,10.449,10.449,10.449h36.571
			c5.77,0,10.449-4.679,10.449-10.449v-57.469C153.164,393.947,148.485,389.267,142.715,389.267z M132.266,446.737h-15.674v-36.571
			h15.674V446.737z"/>
	</g>
</g>
<g>
	<g>
		<path d="M215.858,389.267h-36.571c-5.77,0-10.449,4.679-10.449,10.449v57.469c0,5.77,4.679,10.449,10.449,10.449h36.571
			c5.77,0,10.449-4.679,10.449-10.449v-57.469C226.307,393.947,221.628,389.267,215.858,389.267z M205.409,446.737h-15.673v-36.571
			h15.673V446.737z"/>
	</g>
</g>
<g>
	<g>
		<path d="M400.506,422.486h-0.187c-5.77,0-10.449,4.679-10.449,10.449c0,5.77,4.679,10.449,10.449,10.449h0.187
			c5.77,0,10.449-4.679,10.449-10.449C410.955,427.165,406.276,422.486,400.506,422.486z"/>
	</g>
</g>
<g>
	<g>
		<path d="M400.506,176.087h-0.187c-5.77,0-10.449,4.679-10.449,10.449c0,5.77,4.679,10.449,10.449,10.449h0.187
			c5.77,0,10.449-4.679,10.449-10.449C410.955,180.766,406.276,176.087,400.506,176.087z"/>
	</g>
</g>
<g>
	<g>
		<path d="M400.506,225.367h-0.187c-5.77,0-10.449,4.679-10.449,10.449c0,5.77,4.679,10.449,10.449,10.449h0.187
			c5.77,0,10.449-4.679,10.449-10.449C410.955,230.046,406.276,225.367,400.506,225.367z"/>
	</g>
</g>
<g>
	<g>
		<path d="M400.506,274.646h-0.187c-5.77,0-10.449,4.679-10.449,10.449c0,5.77,4.679,10.449,10.449,10.449h0.187
			c5.77,0,10.449-4.679,10.449-10.449C410.955,279.325,406.276,274.646,400.506,274.646z"/>
	</g>
</g>
<g>
	<g>
		<path d="M400.506,323.926h-0.187c-5.77,0-10.449,4.679-10.449,10.449c0,5.77,4.679,10.449,10.449,10.449h0.187
			c5.77,0,10.449-4.679,10.449-10.449C410.955,328.605,406.276,323.926,400.506,323.926z"/>
	</g>
</g>
<g>
	<g>
		<path d="M400.506,373.206h-0.187c-5.77,0-10.449,4.679-10.449,10.449c0,5.77,4.679,10.449,10.449,10.449h0.187
			c5.77,0,10.449-4.679,10.449-10.449C410.955,377.885,406.276,373.206,400.506,373.206z"/>
	</g>
</g>
<g>
	<g>
		<path d="M479.085,491.101H450.47V136.957c0-5.77-4.679-10.449-10.449-10.449H266.535V55.379c0-4.845-3.331-9.055-8.046-10.169
			L68.318,0.279c-3.109-0.732-6.382-0.006-8.887,1.976c-2.506,1.98-3.965,4.999-3.965,8.193v480.653H32.914
			c-5.77,0-10.449,4.679-10.449,10.449c0,5.77,4.679,10.449,10.449,10.449h446.171c5.77,0,10.449-4.679,10.449-10.449
			C489.534,495.78,484.855,491.101,479.085,491.101z M245.637,136.957v354.144H76.364V23.652l169.273,39.993V136.957z
			 M429.572,491.101H266.535v-47.716h97.872c5.77,0,10.449-4.679,10.449-10.449c0-5.77-4.679-10.449-10.449-10.449h-97.872v-28.381
			h97.872c5.77,0,10.449-4.679,10.449-10.449c0-5.77-4.679-10.449-10.449-10.449h-97.872v-28.383h97.872
			c5.77,0,10.449-4.679,10.449-10.449c0-5.77-4.679-10.449-10.449-10.449h-97.872v-28.382h97.872c5.77,0,10.449-4.679,10.449-10.449
			c0-5.77-4.679-10.449-10.449-10.449h-97.872v-28.382h97.872c5.77,0,10.449-4.679,10.449-10.449c0-5.77-4.679-10.449-10.449-10.449
			h-97.872v-28.382h97.872c5.77,0,10.449-4.679,10.449-10.449c0-5.77-4.679-10.449-10.449-10.449h-97.872v-28.681h163.036V491.101z"
			/>
	</g>
</g>
<g>
</g>
<g>
</g>
<g>
</g>
<g>
</g>
<g>
</g>
<g>
</g>
<g>
</g>
<g>
</g>
<g>
</g>
<g>
</g>
<g>
</g>
<g>
</g>
<g>
</g>
<g>
</g>
<g>
</g>
</svg>
